# xmcd
#
# Track frame offsets: 
#        150
#        21673
#        42319
#        73331
#        86900
#        100011
#        124755
#        141541
#        166744
#        184947
#        206070
#
# Disc length: 2936 seconds
#
# Revision: 0
# Processed by: cddbd v1.5.2PL0 Copyright (c) Steve Scherf et al.
# Submitted via: ExactAudioCopy v1.2
#
DISCID=a90b760b
DTITLE=Carvin Jones Band - What a Good Day
DYEAR=2018
DGENRE=Blues
TTITLE0=What a Good Day
TTITLE1=Money Shot
TTITLE2=Two Long Years
TTITLE3=Gotta Find My Way Back Home
TTITLE4=Tell Me How You Like It [Explicit]
TTITLE5=ATM Blues
TTITLE6=Messin' with the Kid
TTITLE7=Blues Is My Life
TTITLE8=Party Over Here Party Over There
TTITLE9=Why I Sing the Blues
TTITLE10=Travis Walk (Walking Wit Wes)
EXTD=
EXTT0=
EXTT1=
EXTT2=
EXTT3=
EXTT4=
EXTT5=
EXTT6=
EXTT7=
EXTT8=
EXTT9=
EXTT10=
PLAYORDER=
